<?xml version="1.0" encoding="utf-8"?>
<!-- Generator: Adobe Illustrator 22.0.1, SVG Export Plug-In . SVG Version: 6.00 Build 0)  -->
<svg version="1.1" id="Слой_1" xmlns="http://www.w3.org/2000/svg" xmlns:xlink="http://www.w3.org/1999/xlink" x="0px" y="0px"
	 viewBox="0 0 44 44" style="enable-background:new 0 0 44 44;" xml:space="preserve">
<style type="text/css">
	.st0{fill:#FFFFFF;}
</style>
<path class="st0" d="M22,43.4C10.2,43.4,0.6,33.8,0.6,22S10.2,0.6,22,0.6c11.8,0,21.4,9.6,21.4,21.4S33.8,43.4,22,43.4z M35.9,20.6
	c0.7-0.7,0.7-1.8,0-2.5l-2.8-2.8c-0.7-0.7-1.8-0.7-2.5,0L22,23.8l-8.6-8.6c-0.7-0.7-1.8-0.7-2.5,0l-2.8,2.8c-0.7,0.7-0.7,1.8,0,2.5
	l12.7,12.7c0.7,0.7,1.8,0.7,2.5,0L35.9,20.6z"/>
</svg>
