<?xml version="1.0" encoding="utf-8"?>
<!-- Generator: Adobe Illustrator 22.0.1, SVG Export Plug-In . SVG Version: 6.00 Build 0)  -->
<svg version="1.1" id="Слой_1" xmlns="http://www.w3.org/2000/svg" xmlns:xlink="http://www.w3.org/1999/xlink" x="0px" y="0px"
	 viewBox="0 0 26 25" style="enable-background:new 0 0 26 25;" xml:space="preserve">
<style type="text/css">
	.st0{fill:#FFFFFF;}
</style>
<path class="st0" d="M13,25.1c-6.9,0-12.4-5.6-12.4-12.4S6.1,0.2,13,0.2c6.9,0,12.4,5.6,12.4,12.4S19.9,25.1,13,25.1z M13.3,10.8
	c-5.5,1.6-10.7,1.5-10.9,1.5c0,0.1,0,0.2,0,0.3c0,2.7,1,5.2,2.7,7.1c2.9-5.2,8.6-7,8.6-7c0.1,0,0.3-0.1,0.4-0.1
	C13.9,12,13.6,11.4,13.3,10.8z M8.5,3c-3,1.4-5.2,4.1-5.9,7.4c0.3,0,4.7,0,9.8-1.3C10.6,5.9,8.6,3.2,8.5,3z M14.9,14.4
	C14.9,14.4,14.8,14.4,14.9,14.4c-0.1,0-6.4,2.2-8.4,6.7c-0.1-0.1-0.2-0.2-0.2-0.2c1.8,1.5,4.2,2.4,6.8,2.4c1.5,0,2.9-0.3,4.1-0.8
	C17,21.5,16.4,18.2,14.9,14.4z M10.4,2.3C10.4,2.3,10.4,2.3,10.4,2.3C10.4,2.3,10.4,2.3,10.4,2.3z M13,2c-0.9,0-1.7,0.1-2.5,0.3
	c0.2,0.2,2.2,2.8,4,6.2C18.5,7,20,4.7,20,4.7C18.2,3,15.7,2,13,2z M21.2,5.9c0,0-1.7,2.5-5.9,4.2c0.2,0.5,0.5,1,0.7,1.5
	c0.1,0.2,0.1,0.4,0.2,0.6c3.7-0.5,7.3,0.3,7.4,0.3C23.6,10,22.7,7.7,21.2,5.9z M16.9,13.9c1.4,3.8,2,7,2.1,7.6
	c2.4-1.6,4.1-4.2,4.5-7.1C23.3,14.3,20.3,13.3,16.9,13.9z"/>
</svg>
