<?xml version="1.0" encoding="utf-8"?>
<!-- Generator: Adobe Illustrator 22.0.1, SVG Export Plug-In . SVG Version: 6.00 Build 0)  -->
<svg version="1.1" id="Слой_1" xmlns="http://www.w3.org/2000/svg" xmlns:xlink="http://www.w3.org/1999/xlink" x="0px" y="0px"
	 viewBox="0 0 25.6 26.9" style="enable-background:new 0 0 25.6 26.9;" xml:space="preserve">
<style type="text/css">
	.st0{fill:#FFFFFF;}
</style>
<path class="st0" d="M16.4,20.3c0,1-0.3,2-0.8,2.8c-1.7,2.8-5.1,3.8-8.2,3.8c-2.4,0-5.4-0.6-6.8-2.9C0.2,23.4,0,22.7,0,21.9
	c0-1.8,1.1-3.4,2.6-4.3C4.5,16.4,7,16.2,9.2,16c-0.6-0.7-1-1.4-1-2.4c0-0.5,0.1-0.9,0.3-1.4c-0.4,0-0.7,0.1-1.1,0.1
	c-3.2,0-5.7-2.3-5.7-5.5c0-1.8,0.8-3.5,2.2-4.7C5.7,0.6,8.1,0,10.4,0h6.8l-2.2,1.4h-2.1c1.5,1.3,2.4,2.7,2.4,4.7
	c0,4.2-3.8,4.7-3.8,6.7C11.4,15,16.4,15.7,16.4,20.3z M14.1,21.7c0-2.2-2.2-3.5-3.7-4.6c-0.3,0-0.5,0-0.8,0C6.9,17,3,17.8,3,21.2
	c0,3.2,3.4,4.3,6,4.3C11.4,25.5,14.1,24.5,14.1,21.7z M11.3,10.4c0.7-0.7,0.9-1.6,0.9-2.6c0-2.4-1.4-6.5-4.3-6.5
	C7,1.3,6,1.8,5.5,2.5C4.9,3.2,4.7,4.2,4.7,5.1c0,2.4,1.4,6.2,4.3,6.2C9.8,11.3,10.8,10.9,11.3,10.4z M25.6,11.3V13h-3.4v3.5h-1.7V13
	H17v-1.7h3.4V7.8h1.7v3.5H25.6z"/>
</svg>
