<?xml version="1.0" encoding="utf-8"?>
<!-- Generator: Adobe Illustrator 22.0.1, SVG Export Plug-In . SVG Version: 6.00 Build 0)  -->
<svg version="1.1" id="Слой_1" xmlns="http://www.w3.org/2000/svg" xmlns:xlink="http://www.w3.org/1999/xlink" x="0px" y="0px"
	 viewBox="0 0 8 12" style="enable-background:new 0 0 8 12;" xml:space="preserve">
<style type="text/css">
	.st0{fill:#444444;}
</style>
<path class="st0" d="M7.7,5.4l-2.8,6C4.7,11.8,4.4,12,4,12s-0.7-0.2-0.9-0.6l-2.9-6C0.1,5,0,4.5,0,4c0-2.2,1.8-4,4-4s4,1.8,4,4
	C8,4.5,7.9,5,7.7,5.4z M4,2C2.9,2,2,2.9,2,4s0.9,2,2,2s2-0.9,2-2S5.1,2,4,2z"/>
</svg>
