<?xml version="1.0" encoding="utf-8"?>
<!-- Generator: Adobe Illustrator 22.0.1, SVG Export Plug-In . SVG Version: 6.00 Build 0)  -->
<svg version="1.1" id="Слой_1" xmlns="http://www.w3.org/2000/svg" xmlns:xlink="http://www.w3.org/1999/xlink" x="0px" y="0px"
	 viewBox="0 0 20 20" style="enable-background:new 0 0 20 20;" xml:space="preserve">
<style type="text/css">
	.st0{fill:#FFFFFF;}
</style>
<path class="st0" d="M18.3,20c-0.4,0-0.8-0.2-1.1-0.4l-4-4c-1.4,0.9-3,1.5-4.7,1.5c-4.6,0-8.3-3.7-8.3-8.3s3.7-8.3,8.3-8.3
	s8.3,3.7,8.3,8.3c0,1.7-0.5,3.3-1.5,4.7l4,4c0.3,0.3,0.4,0.7,0.4,1.1C19.8,19.3,19.1,20,18.3,20z M8.5,3.5c-2.9,0-5.3,2.4-5.3,5.3
	S5.6,14,8.5,14s5.3-2.4,5.3-5.3S11.4,3.5,8.5,3.5z"/>
</svg>
