<?xml version="1.0" encoding="utf-8"?>
<!-- Generator: Adobe Illustrator 22.0.1, SVG Export Plug-In . SVG Version: 6.00 Build 0)  -->
<svg version="1.1" id="Слой_1" xmlns="http://www.w3.org/2000/svg" xmlns:xlink="http://www.w3.org/1999/xlink" x="0px" y="0px"
	 viewBox="0 0 26 21" style="enable-background:new 0 0 26 21;" xml:space="preserve">
<style type="text/css">
	.st0{fill:#FFFFFF;}
</style>
<path class="st0" d="M23.1,5.4c0,0.2,0,0.5,0,0.7C23.2,13,17.9,21,8.3,21c-3,0-5.7-0.9-8-2.3c0.4,0,0.8,0.1,1.3,0.1
	c2.4,0,4.7-0.8,6.5-2.2c-2.3,0-4.2-1.6-4.9-3.6c0.3,0,0.6,0.1,1,0.1c0.5,0,0.9-0.1,1.4-0.2c-2.4-0.5-4.2-2.6-4.2-5.1c0,0,0,0,0-0.1
	C2,8,2.8,8.2,3.6,8.2C2.2,7.3,1.3,5.7,1.3,3.9c0-1,0.3-1.9,0.7-2.6c2.6,3.2,6.4,5.2,10.8,5.5c-0.1-0.4-0.1-0.8-0.1-1.2
	c0-2.9,2.3-5.2,5.2-5.2c1.5,0,2.9,0.6,3.8,1.7c1.2-0.2,2.3-0.7,3.3-1.3c-0.4,1.2-1.2,2.2-2.3,2.9c1.1-0.1,2.1-0.4,3-0.8
	C25.1,3.8,24.2,4.7,23.1,5.4z"/>
</svg>
